<?xml version="1.0" encoding="UTF-8"?>
<svg id="Layer_1" data-name="Layer 1" xmlns="http://www.w3.org/2000/svg" viewBox="0 0 1708.77 242.23">
  <g>
    <path d="M324.76,189.73c-9.48,0-18.75-1.51-27.79-4.52-9.05-3.02-16.81-7.33-23.27-12.92l10.77-18.11c6.9,4.89,13.62,8.59,20.15,11.1,6.54,2.53,13.04,3.77,19.5,3.77,5.75,0,10.28-1.07,13.58-3.23,3.3-2.16,4.95-5.24,4.95-9.26s-1.94-6.98-5.82-8.84c-3.88-1.88-10.2-4.03-18.96-6.47-7.33-2.02-13.58-3.95-18.75-5.82-5.17-1.86-9.35-3.98-12.5-6.35-3.16-2.37-5.46-5.1-6.89-8.19-1.44-3.09-2.16-6.79-2.16-11.1,0-5.75,1.11-10.91,3.34-15.52,2.23-4.59,5.35-8.5,9.37-11.73,4.02-3.24,8.72-5.72,14.12-7.44,5.38-1.74,11.24-2.6,17.56-2.6,8.47,0,16.4,1.23,23.8,3.66,7.4,2.44,14.19,6.4,20.37,11.85l-11.63,17.45c-5.75-4.3-11.32-7.47-16.7-9.47-5.38-2.02-10.74-3.02-16.05-3.02-4.88,0-8.98,1-12.28,3.02-3.31,2-4.95,5.24-4.95,9.7,0,2,.39,3.65,1.18,4.95.79,1.3,2.05,2.46,3.77,3.45,1.73,1,3.99,1.96,6.79,2.91,2.81.93,6.29,1.89,10.45,2.91,7.76,2,14.41,4.02,19.94,6.03,5.52,2,10.05,4.3,13.57,6.89,3.52,2.58,6.1,5.56,7.76,8.94,1.65,3.37,2.47,7.44,2.47,12.17,0,11.07-4.09,19.8-12.28,26.18-8.18,6.4-19.32,9.59-33.4,9.59Z"/>
    <path d="M423.67,189.73c-11.63,0-20.46-3.74-26.51-11.21-6.03-7.47-9.05-18.54-9.05-33.18v-70.69h28.87v64.43c0,17.38,6.25,26.08,18.75,26.08,5.6,0,11.02-1.68,16.26-5.07,5.24-3.37,9.51-8.5,12.82-15.4v-70.04h28.87v79.73c0,3.02.54,5.17,1.62,6.45,1.08,1.3,2.83,2.02,5.28,2.16v24.57c-2.88.58-5.28.93-7.22,1.07-1.95.16-3.7.23-5.28.23-5.17,0-9.38-1.19-12.61-3.56-3.24-2.37-5.14-5.63-5.71-9.8l-.65-9.05c-5.03,7.75-11.49,13.57-19.39,17.45-7.9,3.88-16.59,5.82-26.08,5.82Z"/>
    <path d="M565.02,189.73c-9.48,0-18.75-1.51-27.79-4.52-9.05-3.02-16.81-7.33-23.27-12.92l10.77-18.11c6.9,4.89,13.62,8.59,20.15,11.1,6.54,2.53,13.04,3.77,19.5,3.77,5.75,0,10.28-1.07,13.58-3.23,3.3-2.16,4.95-5.24,4.95-9.26s-1.94-6.98-5.82-8.84c-3.88-1.88-10.2-4.03-18.96-6.47-7.33-2.02-13.58-3.95-18.75-5.82-5.17-1.86-9.35-3.98-12.5-6.35-3.16-2.37-5.46-5.1-6.89-8.19-1.44-3.09-2.16-6.79-2.16-11.1,0-5.75,1.11-10.91,3.34-15.52,2.23-4.59,5.35-8.5,9.37-11.73,4.02-3.24,8.72-5.72,14.12-7.44,5.38-1.74,11.24-2.6,17.56-2.6,8.47,0,16.4,1.23,23.8,3.66,7.4,2.44,14.19,6.4,20.37,11.85l-11.63,17.45c-5.75-4.3-11.32-7.47-16.7-9.47-5.38-2.02-10.74-3.02-16.05-3.02-4.88,0-8.98,1-12.28,3.02-3.31,2-4.95,5.24-4.95,9.7,0,2,.39,3.65,1.18,4.95s2.05,2.46,3.77,3.45c1.73,1,3.99,1.96,6.79,2.91,2.81.93,6.29,1.89,10.45,2.91,7.76,2,14.41,4.02,19.94,6.03,5.52,2,10.05,4.3,13.57,6.89,3.52,2.58,6.1,5.56,7.76,8.94,1.65,3.37,2.47,7.44,2.47,12.17,0,11.07-4.09,19.8-12.28,26.18-8.18,6.4-19.32,9.59-33.4,9.59Z"/>
    <path d="M697.11,181.75c-3.88,1.74-8.62,3.45-14.22,5.17s-11.49,2.6-17.67,2.6c-4.02,0-7.79-.51-11.31-1.51-3.52-1.02-6.61-2.63-9.27-4.86-2.67-2.23-4.78-5.1-6.36-8.61-1.59-3.52-2.38-7.8-2.38-12.84v-64.85h-14.86v-22.2h14.86v-36.63h28.88v36.63h23.7v22.2h-23.7v55.15c0,4.03,1.03,6.87,3.12,8.52,2.08,1.65,4.63,2.47,7.65,2.47s5.96-.49,8.84-1.51c2.88-1,5.17-1.86,6.89-2.58l5.82,22.83Z"/>
    <path d="M743.01,189.73c-5.46,0-10.57-.89-15.3-2.7-4.74-1.79-8.84-4.3-12.28-7.54-3.45-3.23-6.15-7-8.08-11.31-1.94-4.31-2.91-9.05-2.91-14.22s1.19-10.24,3.56-14.77c2.37-4.52,5.67-8.36,9.91-11.52,4.23-3.16,9.3-5.63,15.19-7.44,5.89-1.79,12.35-2.7,19.39-2.7,5.02,0,9.94.44,14.76,1.3,4.81.86,9.08,2.09,12.83,3.66v-6.47c0-7.45-2.12-13.2-6.36-17.24-4.24-4.02-10.53-6.03-18.86-6.03-6.03,0-11.92,1.09-17.67,3.24-5.75,2.14-11.63,5.31-17.67,9.47l-8.84-18.31c14.51-9.63,30.17-14.45,46.98-14.45s28.84,4,37.82,11.96c8.98,7.98,13.47,19.52,13.47,34.6v35.12c0,3.02.53,5.17,1.61,6.45,1.08,1.3,2.83,2.02,5.28,2.16v24.57c-4.88,1-9.12,1.51-12.71,1.51-5.46,0-9.66-1.23-12.6-3.66-2.95-2.44-4.78-5.66-5.5-9.7l-.65-6.24c-5.03,6.61-11.14,11.63-18.32,15.08-7.18,3.45-14.87,5.17-23.05,5.17ZM751.19,168.62c4.88,0,9.52-.86,13.91-2.6,4.38-1.72,7.79-4.02,10.23-6.89,3.16-2.44,4.74-5.17,4.74-8.19v-12.92c-3.45-1.3-7.19-2.33-11.21-3.12-4.02-.79-7.91-1.19-11.63-1.19-7.48,0-13.58,1.68-18.32,5.07-4.74,3.37-7.11,7.65-7.11,12.82,0,4.87,1.86,8.94,5.6,12.17,3.73,3.23,8.33,4.86,13.78,4.86Z"/>
    <path d="M835.87,58.93v-28.65h28.87v28.65h-28.87ZM835.87,187.57v-112.91h28.87v112.91h-28.87Z"/>
    <path d="M995.76,187.57h-28.88v-63.36c0-9.05-1.58-15.64-4.73-19.82-3.17-4.17-7.54-6.26-13.14-6.26-2.88,0-5.82.58-8.84,1.74-3.02,1.14-5.86,2.77-8.51,4.84-2.66,2.09-5.06,4.56-7.22,7.44s-3.74,6.03-4.74,9.49v65.93h-28.87v-112.91h26.08v20.9c4.16-7.19,10.2-12.78,18.1-16.8,7.9-4.03,16.81-6.05,26.72-6.05,7.03,0,12.78,1.3,17.24,3.89,4.45,2.58,7.9,5.96,10.34,10.12,2.45,4.17,4.13,8.91,5.07,14.22.93,5.31,1.4,10.71,1.4,16.17v70.46Z"/>
    <path d="M1051.79,189.73c-5.46,0-10.57-.89-15.3-2.7-4.74-1.79-8.84-4.3-12.28-7.54-3.45-3.23-6.15-7-8.08-11.31-1.94-4.31-2.91-9.05-2.91-14.22s1.19-10.24,3.56-14.77c2.37-4.52,5.67-8.36,9.91-11.52,4.23-3.16,9.3-5.63,15.19-7.44,5.89-1.79,12.35-2.7,19.39-2.7,5.02,0,9.94.44,14.76,1.3s9.08,2.09,12.83,3.66v-6.47c0-7.45-2.12-13.2-6.36-17.24-4.24-4.02-10.53-6.03-18.86-6.03-6.03,0-11.92,1.09-17.67,3.24-5.75,2.14-11.63,5.31-17.67,9.47l-8.84-18.31c14.51-9.63,30.17-14.45,46.98-14.45s28.84,4,37.82,11.96c8.98,7.98,13.47,19.52,13.47,34.6v35.12c0,3.02.53,5.17,1.61,6.45,1.08,1.3,2.83,2.02,5.28,2.16v24.57c-4.88,1-9.12,1.51-12.71,1.51-5.46,0-9.66-1.23-12.6-3.66-2.95-2.44-4.78-5.66-5.5-9.7l-.65-6.24c-5.03,6.61-11.14,11.63-18.32,15.08s-14.87,5.17-23.05,5.17ZM1059.97,168.62c4.88,0,9.52-.86,13.91-2.6,4.38-1.72,7.79-4.02,10.23-6.89,3.16-2.44,4.74-5.17,4.74-8.19v-12.92c-3.45-1.3-7.19-2.33-11.21-3.12-4.02-.79-7.91-1.19-11.63-1.19-7.48,0-13.58,1.68-18.32,5.07-4.74,3.37-7.11,7.65-7.11,12.82,0,4.87,1.86,8.94,5.6,12.17,3.73,3.23,8.33,4.86,13.78,4.86Z"/>
    <path d="M1208.86,189.73c-8.62,0-16.31-1.95-23.06-5.82-6.75-3.88-12.06-9.19-15.94-15.94v19.6h-25.22V30.28h28.87v64.22c4.02-6.91,9.3-12.26,15.84-16.06,6.53-3.81,14.18-5.72,22.95-5.72,7.33,0,14,1.6,20.04,4.75,6.03,3.16,11.23,7.4,15.62,12.71,4.38,5.31,7.76,11.56,10.13,18.75,2.38,7.19,3.56,14.73,3.56,22.62s-1.33,15.8-3.99,22.85c-2.66,7.03-6.36,13.17-11.09,18.41-4.74,5.24-10.35,9.38-16.81,12.4-6.47,3.02-13.44,4.52-20.9,4.52ZM1200.88,165.16c4.6,0,8.84-.89,12.71-2.7,3.88-1.79,7.19-4.19,9.92-7.21s4.85-6.54,6.36-10.56c1.51-4.03,2.26-8.33,2.26-12.94s-.72-8.96-2.16-13.13c-1.44-4.17-3.48-7.84-6.14-10.99-2.67-3.16-5.79-5.66-9.37-7.54-3.59-1.86-7.54-2.81-11.85-2.81-6.46,0-12.25,2.12-17.34,6.37-5.1,4.24-9.02,9.45-11.75,15.62v26.93c1.01,2.88,2.48,5.45,4.42,7.75,1.94,2.3,4.13,4.28,6.58,5.93,2.44,1.65,5.09,2.95,7.97,3.88,2.88.95,5.67,1.4,8.4,1.4Z"/>
    <path d="M1281.26,58.93v-28.65h28.87v28.65h-28.87ZM1281.26,187.57v-112.91h28.87v112.91h-28.87Z"/>
    <path d="M1336,30.28h28.87v121.1c0,4.16,1,7.4,3.02,9.7,2.01,2.3,4.88,3.44,8.62,3.44,1.72,0,3.62-.28,5.71-.86,2.08-.58,4.06-1.3,5.93-2.16l3.88,21.99c-3.88,1.86-8.4,3.3-13.57,4.3-5.17,1.02-9.84,1.51-14,1.51-9.06,0-16.05-2.4-21.02-7.21-4.95-4.82-7.43-11.68-7.43-20.59V30.28Z"/>
    <path d="M1404.51,58.93v-28.65h28.87v28.65h-28.87ZM1404.51,187.57v-112.91h28.87v112.91h-28.87Z"/>
    <path d="M1527.12,181.75c-3.88,1.74-8.62,3.45-14.22,5.17-5.6,1.72-11.49,2.6-17.67,2.6-4.02,0-7.79-.51-11.31-1.51-3.52-1.02-6.61-2.63-9.27-4.86-2.67-2.23-4.78-5.1-6.36-8.61-1.59-3.52-2.38-7.8-2.38-12.84v-64.85h-14.86v-22.2h14.86v-36.63h28.88v36.63h23.7v22.2h-23.7v55.15c0,4.03,1.03,6.87,3.12,8.52,2.08,1.65,4.63,2.47,7.65,2.47s5.96-.49,8.84-1.51c2.88-1,5.17-1.86,6.89-2.58l5.82,22.83Z"/>
    <path d="M1544.57,209.54c2.45.72,4.81,1.26,7.11,1.63,2.3.35,4.24.53,5.82.53,1.87,0,3.59-.35,5.17-1.07,1.58-.72,3.02-1.98,4.31-3.77,1.3-1.81,2.59-4.28,3.88-7.44,1.29-3.16,2.66-7.12,4.09-11.85l-44.61-112.91h29.74l30.6,87.92,27.15-87.92h27.15l-47.41,135.32c-2.73,7.89-7.4,14.36-14,19.39-6.61,5.03-14.8,7.54-24.57,7.54-2.3,0-4.63-.18-7.01-.54-2.37-.35-4.85-.96-7.44-1.82v-25.01Z"/>
  </g>
  <path d="M223.79,10.36c-15.18,0-27.49,12.31-27.49,27.49s12.31,27.49,27.49,27.49,27.49-12.31,27.49-27.49-12.31-27.49-27.49-27.49ZM223.79,50.12c-6.87,0-12.45-5.57-12.45-12.45s5.57-12.45,12.45-12.45,12.45,5.57,12.45,12.45-5.57,12.45-12.45,12.45Z"/>
  <path d="M1680.92,134.59c-15.18,0-27.49,12.31-27.49,27.49s12.31,27.49,27.49,27.49,27.49-12.31,27.49-27.49-12.31-27.49-27.49-27.49Z"/>
  <g id="gmbh">
    <path d="M107.44,165.09c.3,2.22.65,4.44.87,6.66,1.22,12.14-1.61,23.29-8.36,33.43-8.01,12.1-19.55,19.07-33.43,22.42-5.01,1.22-10.1,1.78-15.28,1.74-5.14,0-10.27,0-15.37-.87-10.4-1.87-19.94-5.83-28.6-11.93-1.57-1.09-1.65-1.52-.52-3.18,3.96-5.96,7.92-11.97,11.88-17.93.26-.44.61-.78.96-1.13.48-.48,1.04-.48,1.57,0,.48.44,1,.87,1.48,1.26,6.18,5.14,13.36,7.92,21.33,8.79,8.53.87,16.58-.61,24.03-4.88,6.18-3.53,10.66-8.58,13.23-15.28,1.65-4.35,1.52-8.75.7-13.23-1.44-7.75-6.22-13.15-12.49-17.24-8.66-5.66-18.2-7.53-28.43-5.75-2.44.44-4.79,1.04-7.18,1.57-.48.09-.96.26-1.48.35-.3,0-.65-.13-.96-.22.09-.26.17-.57.3-.78,1.61-2.48,3.22-5.01,4.83-7.49,8.88-13.58,17.76-27.12,26.64-40.7.87-1.35,1.78-2.66,2.61-4,1-1.61.87-1.87-1.13-1.96H17.73c-.78,0-1.57-.17-2.35-.26.35-.74.61-1.57,1.04-2.26,4.35-6.66,8.75-13.32,13.02-20.02,1.22-1.92,2.57-2.7,4.92-2.7,25.33.13,50.67.17,76,.22.87,0,1.74,0,2.61.09.7.04.83.48.48,1.04-.7,1.09-1.39,2.22-2.13,3.31-5.14,7.7-10.27,15.41-15.41,23.11-6.62,9.88-13.23,19.72-19.85,29.56-.09.13-.17.22-.26.35-1.22,1.83-1.18,2.05.83,2.7,6.44,2.09,12.19,5.35,16.98,10.14,1.74,1.74,3.26,3.66,4.88,5.53.44.57.48.57.74,0-.22-2.74-.48-5.48-.7-8.23-.65-9.58,1.52-18.5,5.79-27.08,3.4-6.83,7.23-13.36,11.36-19.76,6.05-9.36,12.1-18.72,18.2-28.03,6.7-10.23,13.45-20.42,20.11-30.69.7-1.04,1.44-1.48,2.66-1.48h27.38c.96.13,1.18.44.78,1.26-.22.44-.57.87-.83,1.26-6.66,9.97-13.36,19.94-20.02,29.95-3.4,5.14-6.79,10.23-10.19,15.37-.35.52-.48,1.18-.74,1.74.61.09,1.22.26,1.83.22,5.05-.39,9.97.22,14.84,1.44,7.79,1.96,15.15,4.96,21.55,9.88,8.58,6.66,15.15,14.93,18.85,25.2,3.92,10.88,3.83,21.85.44,32.82-3.83,12.41-11.1,22.33-21.77,29.73-6.75,4.7-14.1,8.05-22.2,9.36-14.23,2.31-27.82.48-40.4-7.1-6.36-3.83-11.84-8.53-16.37-14.41-.61-.78-1.35-1.48-2-2.26-.26-.26-.48-.3-.48.17h0l.13.17ZM186.06,132.14c-.35-8.71-3.87-17.24-11.97-23.59-6.4-5.01-13.58-7.31-21.68-6.09-9.84,1.44-17.11,6.7-22.07,15.15-2.18,3.7-3.31,7.75-3.7,12.1-.57,6.7.61,12.97,3.4,18.94,4.74,10.1,17.98,17.93,30.56,15.54,7.7-1.48,14.06-5.18,18.89-11.36,4.4-5.66,6.49-12.19,6.57-20.72h0v.04Z"/>
  </g>
</svg>